<svg width="50" height="50" viewBox="0 0 50 50" fill="none" xmlns="http://www.w3.org/2000/svg">
<circle opacity="0.5" cx="25" cy="25" r="25" fill="white"/>
<path d="M34.9619 19.2856C34.2286 19.619 33.4381 19.838 32.619 19.9428C33.4571 19.438 34.1048 18.638 34.4095 17.6761C33.619 18.1523 32.7428 18.4856 31.819 18.6761C31.0667 17.857 30.0095 17.3809 28.8095 17.3809C26.5714 17.3809 24.7428 19.2094 24.7428 21.4666C24.7428 21.7904 24.7809 22.1047 24.8476 22.3999C21.4571 22.2285 18.4381 20.5999 16.4286 18.1332C16.0762 18.7332 15.8762 19.438 15.8762 20.1809C15.8762 21.5999 16.5905 22.857 17.6952 23.5713C17.019 23.5713 16.3905 23.3809 15.8381 23.0951V23.1237C15.8381 25.1047 17.2476 26.7618 19.1143 27.1332C18.515 27.2972 17.8858 27.3201 17.2762 27.1999C17.5349 28.0118 18.0415 28.7222 18.7248 29.2313C19.4081 29.7403 20.2337 30.0225 21.0857 30.038C19.6415 31.1813 17.8514 31.7993 16.0095 31.7904C15.6857 31.7904 15.3619 31.7713 15.0381 31.7332C16.8476 32.8951 19 33.5713 21.3048 33.5713C28.8095 33.5713 32.9333 27.3428 32.9333 21.9428C32.9333 21.7618 32.9333 21.5904 32.9238 21.4094C33.7238 20.838 34.4095 20.1142 34.9619 19.2856Z" fill="white"/>
</svg>
