<svg width="616" height="544" viewBox="0 0 616 544" fill="none" xmlns="http://www.w3.org/2000/svg">
<path opacity="0.1" fill-rule="evenodd" clip-rule="evenodd" d="M476.011 495.907L478.533 495.775C495.746 494.795 512.46 492.274 527.836 501.937C548.273 514.778 548.365 543.983 527.836 556.8C511.684 566.891 494.132 563.577 476.011 563.105C461.088 562.716 446.161 562.447 431.235 562.288C401.404 561.975 371.591 561.902 341.757 562.052C314.842 562.187 287.903 561.871 260.994 561.222L249.464 560.922C221.864 560.162 192.965 561.118 165.778 555.734L164.61 555.532L164.644 555.474C159.933 553.887 157.442 546.362 163.073 543.747C190.049 531.218 220.889 525.966 249.858 520.006C279.191 513.979 309.028 509.624 338.777 506.212C368.486 502.813 398.412 500.412 428.255 498.504C444.162 497.481 460.085 496.639 476.011 495.907ZM385.735 110.878L387.701 109.557C409.306 95.264 440.354 81.5014 465.251 92.3521C466.657 92.9646 467.846 93.7639 468.879 94.6827C474.99 94.8021 481.14 95.3105 487.309 96.2415C536.043 103.601 581.076 135.645 603.093 179.761C628.119 229.904 616.232 282.746 571.948 316.85C550.19 333.606 524.62 345.669 497.094 348.389C488.094 349.277 478.557 349.452 469.919 346.72C474.009 355.442 477.121 364.559 478.722 374.176C484.203 407.098 471.169 434.245 440.562 448.461C413.665 460.96 376.439 465.749 349.839 449.974C327.354 436.646 334.717 392.52 364.304 396.474C384.277 399.142 402.281 405.821 422.019 397.289C438.107 390.34 428.347 366.884 423.499 354.545C415.386 333.924 403.452 314.511 393.771 294.488L391.986 290.727C385.9 277.671 378.341 263.877 372.554 249.808C369.369 266.333 363.656 282.55 356.925 297.562C340.95 333.186 310.028 354.983 273.184 365.19C235.305 375.679 190.85 378.114 151.795 376.825C112.075 375.517 70.2586 365.089 41.1978 336.246C-12.039 283.407 3.25097 190.961 59.2726 146.795C95.5107 118.225 146.571 98.6456 193.464 103.717C216.952 98.4221 243.222 101.43 266.722 106.765C298.519 113.983 328.876 129.434 349.662 154.041C351.203 150.17 352.982 146.462 355.018 142.921C354.1 142.499 353.532 141.139 354.437 140.324C356.094 138.833 357.796 137.402 359.499 135.969C366.269 126.457 375.015 118.173 385.735 110.878ZM0.52433 358.523C-1.38921 355.803 2.35228 352.275 5.03613 354.006C27.0266 368.213 50.0472 381.128 75.2626 388.655C99.8941 396.009 125.501 395.249 150.242 401.534C159.541 403.895 158.065 416.007 150.242 418.975C123.013 429.314 92.2888 420.638 66.4193 409.665C40.1738 398.535 17.0707 381.982 0.52433 358.523ZM148.112 131.568L148.769 130.775L147.17 131.308C116.352 141.702 90.9744 158.84 70.3473 183.859C35.1943 226.492 34.7755 294.282 87.3399 323.095C115.679 338.625 149.133 339.357 180.601 337.713L186.962 337.373C214.586 335.845 242.776 333.581 269.434 326.096C298.507 317.932 318.706 300.328 329.83 271.959L330.753 269.568C341.849 240.369 347.626 207.897 327.027 181.467C292.13 136.701 211.496 127.758 161.656 149.157C149.72 154.28 140.14 141.776 148.112 131.568ZM467.95 119.557C467.122 120.365 466.235 121.103 465.251 121.701C455.246 127.712 443.994 127.774 432.904 130.53C422.688 133.069 412.69 136.168 403.287 140.961C388.517 148.48 373.285 157.474 359.321 167.284C362.314 172.074 364.992 177.13 367.287 182.483C373.627 197.279 375.764 212.858 375.098 228.502C384.827 236.936 392.961 247.425 401.572 256.904L409.165 265.274C418.024 275.065 426.824 284.966 435.068 295.241C439.968 301.348 444.942 307.602 449.72 314.039C450.346 312.119 451.23 310.238 452.468 308.453C457.123 301.728 464.31 298.331 472.523 300.276C479.713 301.985 484.518 305.243 492.028 305.292C501.226 305.354 510.091 303.369 518.797 300.524C535.909 294.932 552.678 284.883 565.192 271.867C593.437 242.482 578.535 201.073 556.502 173.081C534.184 144.725 502.134 126.313 467.95 119.557ZM216.399 190.137C225.465 187.515 238.955 191.65 242.944 200.96L245.805 207.737C245.716 207.535 245.646 207.379 245.563 207.195C246.575 209.596 247.544 211.915 248.321 214.377L251.001 216.46C253.291 219.005 255.409 221.69 257.353 224.523C261.951 232.394 263.284 242.473 260.93 251.293C257.045 265.868 243.687 275.224 228.867 275.313C185.489 275.57 174.857 202.154 216.399 190.137ZM478.093 176.946C498.136 176.049 511.485 193.784 513.084 212.004C513.994 222.373 511.901 233.711 508.932 243.628C504.506 258.423 490.433 267.693 475.259 265.654C463.182 264.027 452.513 254.827 449.503 243.003C445.535 233.252 443.294 222.523 443.102 212.004C442.735 192.36 459.425 177.782 478.093 176.946ZM213.593 13.008C233.92 9.72492 253.34 19.6231 256.296 41.5113C259.273 63.5894 243.045 78.1794 222.69 80.3477C184.315 84.4332 145.134 85.404 106.575 87.0915C90.4933 87.7925 74.3908 88.0905 58.2935 88.2326L50.245 88.292C35.2729 88.3808 15.7492 91.3423 2.21992 83.9585C1.33957 83.4807 1.37319 82.3935 1.93258 81.7075C11.4398 69.9791 31.097 64.9813 45.1481 59.8157L46.3384 59.3722C64.1258 52.6499 82.1119 46.3563 100.336 40.908L109.597 38.1553C143.646 28.1083 178.681 18.6563 213.593 13.008ZM342.628 2.26972C355.192 -2.46195 367.59 0.487299 376.134 8.48979C404.705 16.4598 434.112 22.5669 462.87 29.5446L470.695 31.4713C506.747 40.4844 546.363 47.4303 579.889 63.9529C583.448 65.7077 581.21 70.2587 578.08 70.6415C540.732 75.1864 500.496 67.9618 463.365 63.6129C425.323 59.1569 387.089 51.8067 348.935 48.9279C321.549 46.8607 317.569 11.7116 342.628 2.26972Z" fill="black"/>
</svg>
