<svg width="512" height="512" viewBox="0 0 512 512" fill="none" xmlns="http://www.w3.org/2000/svg">
<path d="M304 336V376C304 386.609 299.786 396.783 292.284 404.284C284.783 411.786 274.609 416 264 416H104C93.3913 416 83.2172 411.786 75.7157 404.284C68.2143 396.783 64 386.609 64 376V136C64 125.391 68.2143 115.217 75.7157 107.716C83.2172 100.214 93.3913 96 104 96H256C278.09 96 304 113.91 304 136V176M368 336L448 256L368 176M176 256H432" stroke="black" stroke-width="32" stroke-linecap="round" stroke-linejoin="round"/>
</svg>
