<svg width="138" height="172" viewBox="0 0 138 172" fill="none" xmlns="http://www.w3.org/2000/svg">
<path opacity="0.15" d="M48.9468 150.391L62.5637 157.959C66.2274 159.922 67.5917 164.455 65.6104 168.084C63.6269 171.714 59.0472 173.06 55.3813 171.099C55.3119 171.064 55.2424 171.024 55.1771 170.987L16.4008 149.435C12.7666 147.415 11.4738 142.86 13.5182 139.265C14.1941 138.071 15.1943 137.083 16.3987 136.412L55.1664 114.831C58.7648 112.745 63.3865 113.944 65.4919 117.505C67.5953 121.067 66.3889 125.641 62.7905 127.725C62.7147 127.771 62.6389 127.813 62.561 127.85L48.9043 135.451H60.1036C94.7736 135.451 122.905 108.248 122.905 75.179C122.905 42.1443 94.779 14.939 60.1036 14.939L21.0351 14.939C16.9356 14.939 12.9374 15.3162 9.05639 16.0352C4.97161 16.8605 0.987748 14.2491 0.153878 10.2059C-0.679938 6.16284 1.95836 2.21962 6.04325 1.39426C6.11905 1.37968 6.19484 1.36509 6.27064 1.35258C11.065 0.462668 16.0027 0 21.035 0L60.1057 0.00208407C102.791 0.00208407 138 33.7639 138 75.1861C138 116.634 102.791 150.397 60.1057 150.397H48.9462L48.9468 150.391Z" fill="#1C1C1C"/>
</svg>
