<svg width="136" height="172" viewBox="0 0 136 172" fill="none" xmlns="http://www.w3.org/2000/svg">
<path opacity="0.15" d="M76.2747 21.603H100.339L86.9999 14.0353C83.411 12.0658 82.0827 7.53092 84.0318 3.9066C85.2714 1.60364 87.6104 0.123933 90.2033 0.00719466C91.6162 -0.0553306 93.0187 0.290636 94.2398 1.00758L132.225 22.5598C135.785 24.5794 137.051 29.133 135.052 32.7301C134.386 33.9243 133.411 34.9122 132.231 35.5833L94.246 57.1644C90.7087 59.2256 86.1873 58.0043 84.1476 54.43C82.1076 50.8557 83.3163 46.2871 86.8537 44.224C86.9032 44.1969 86.9506 44.1677 87.0022 44.1406L100.382 36.5398L76.2828 36.5398C42.3204 36.5398 14.7946 63.7396 14.7946 96.8136C14.7946 129.853 42.3156 157.061 76.2828 157.061H114.546C118.597 157.061 122.512 156.683 126.311 155.964C130.312 155.139 134.215 157.75 135.032 161.794C135.848 165.837 133.264 169.78 129.262 170.606C129.188 170.62 129.114 170.635 129.04 170.647C124.341 171.537 119.504 172 114.544 172H76.2728C34.4582 172 2.99122e-06 138.231 2.99122e-06 96.8139C2.99122e-06 55.373 34.4577 21.6011 76.2728 21.6011L76.2747 21.603Z" fill="black"/>
</svg>
