<svg width="127" height="144" viewBox="0 0 127 144" fill="none" xmlns="http://www.w3.org/2000/svg">
<path opacity="0.25" d="M23.1381 123.322L29.1913 134.48C30.8519 137.432 29.8051 141.192 26.8527 142.878C23.8981 144.564 20.1577 143.535 18.4947 140.584C18.4624 140.529 18.432 140.471 18.4035 140.417L1.16668 108.639C-0.448961 105.66 0.657006 101.916 3.63807 100.28C4.6261 99.7355 5.74683 99.4749 6.86935 99.5238L42.9921 101.114C46.3814 101.204 49.0361 104.032 48.9245 107.431C48.8116 110.83 45.978 113.511 42.5896 113.42C42.5174 113.42 42.447 113.416 42.377 113.409L29.6527 112.848L37.3573 117.67C61.2088 132.598 92.4773 125.674 106.961 102.532C121.431 79.4136 113.997 48.2643 90.1417 33.3338L63.2642 16.5117C60.4439 14.7465 57.5281 13.289 54.5432 12.1211C51.3716 10.9398 49.7746 7.39695 50.9719 4.20842C52.1691 1.01998 55.7113 -0.603537 58.883 0.577734C58.9416 0.600163 59.0001 0.622588 59.0577 0.646476C62.7458 2.08805 66.3454 3.89036 69.8074 6.05717L96.6855 22.8816C126.052 41.2613 135.486 80.0484 117.343 109.036C99.1885 138.042 60.1782 146.509 30.8125 128.13L23.1353 123.325L23.1381 123.322Z" fill="#6CC2AF"/>
</svg>
