<svg width="148" height="88" viewBox="0 0 148 88" fill="none" xmlns="http://www.w3.org/2000/svg">
<path opacity="0.15" d="M120.841 30.5147L132.423 47.8867L131.494 34.5961C131.196 31.0525 133.847 27.8997 137.415 27.5534C139.683 27.3342 141.882 28.3068 143.215 30.1222C143.94 31.112 144.364 32.2918 144.432 33.5202L147.076 71.3682C147.324 74.9153 144.63 78.0324 141.057 78.3298C139.87 78.4266 138.684 78.2002 137.629 77.6732L103.687 60.6921C100.489 59.1357 99.199 55.2808 100.811 52.0792C102.422 48.8774 106.319 47.5398 109.519 49.0952C109.562 49.1179 109.606 49.138 109.651 49.1621L121.606 55.1442L110.007 37.7466C93.66 13.2289 60.6752 6.51655 36.6765 22.5171C12.7026 38.501 6.2071 71.531 22.5559 96.0521L40.9725 123.675C42.9222 126.599 45.0802 129.243 47.4305 131.637C49.9553 134.127 49.9388 138.207 47.3981 140.753C44.8574 143.299 40.7522 143.341 38.2273 140.851C38.181 140.805 38.1347 140.758 38.0899 140.711C35.1826 137.749 32.5188 134.481 30.1314 130.9L11.711 103.272C-8.4149 73.086 -0.496949 31.8736 29.5554 11.8369C59.6252 -8.21135 100.715 0.325753 120.841 30.5124L120.841 30.5147Z" fill="#6CC2AF"/>
</svg>
