<svg width="66" height="132" viewBox="0 0 66 132" fill="none" xmlns="http://www.w3.org/2000/svg">
<path opacity="0.25" d="M41.1032 112.512L53.2719 108.895C56.5027 107.88 59.9651 109.68 61.0049 112.917C62.0448 116.157 60.2646 119.604 57.0338 120.621C56.9736 120.642 56.911 120.659 56.8519 120.676L22.1982 130.976C18.9506 131.942 15.5151 130.086 14.5307 126.832C14.2019 125.753 14.1784 124.602 14.4581 123.514L23.4761 88.4988C24.2638 85.2011 27.5798 83.188 30.8825 83.9993C34.1841 84.8118 36.2228 88.1384 35.4338 91.4348C35.4183 91.5053 35.4004 91.5735 35.3788 91.6405L32.201 103.974L38.5108 97.4321C58.0441 77.1788 57.7284 45.1544 38.0776 26.2021C18.4471 7.26942 -13.566 8.10817 -33.1023 28.3646L-55.1138 51.1873C-57.4235 53.5822 -59.452 56.134 -61.2113 58.8132C-63.0222 61.6724 -66.8185 62.5031 -69.691 60.673C-72.5633 58.8429 -73.4201 55.0418 -71.6091 52.1825C-71.5751 52.1298 -71.541 52.0772 -71.5058 52.0257C-69.3334 48.715 -66.8264 45.5653 -63.9912 42.6256L-41.9773 19.8028C-17.9278 -5.13311 21.9716 -6.35148 46.5863 17.3883C71.2166 41.143 71.4425 81.0609 47.3933 105.997L41.1061 112.516L41.1032 112.512Z" fill="#6CC2AF"/>
</svg>
