<svg width="50" height="50" viewBox="0 0 50 50" fill="none" xmlns="http://www.w3.org/2000/svg">
<circle opacity="0.5" cx="25" cy="25" r="25" fill="#615EF0"/>
<path d="M25 22.638C24.5329 22.638 24.0762 22.7765 23.6878 23.036C23.2994 23.2956 22.9967 23.6644 22.8179 24.096C22.6391 24.5276 22.5924 25.0025 22.6835 25.4607C22.7746 25.9188 22.9996 26.3397 23.3299 26.67C23.6602 27.0003 24.0811 27.2253 24.5392 27.3164C24.9974 27.4075 25.4723 27.3608 25.9039 27.182C26.3354 27.0032 26.7043 26.7005 26.9639 26.3121C27.2234 25.9237 27.3619 25.467 27.3619 24.9999C27.3619 24.6897 27.3008 24.3826 27.1821 24.096C27.0634 23.8095 26.8894 23.5491 26.6701 23.3298C26.4508 23.1104 26.1904 22.9365 25.9039 22.8178C25.6173 22.6991 25.3102 22.638 25 22.638ZM34.4571 20.3046C34.4521 19.5692 34.3167 18.8404 34.0571 18.1523C33.866 17.6487 33.5702 17.1914 33.1894 16.8105C32.8085 16.4297 32.3512 16.1339 31.8476 15.9427C31.1595 15.6832 30.4307 15.5478 29.6952 15.5427C28.4667 15.4761 28.1048 15.4761 25 15.4761C21.8952 15.4761 21.5333 15.4761 20.3048 15.5427C19.5693 15.5478 18.8405 15.6832 18.1524 15.9427C17.6488 16.1339 17.1915 16.4297 16.8107 16.8105C16.4298 17.1914 16.134 17.6487 15.9429 18.1523C15.6833 18.8404 15.5479 19.5692 15.5429 20.3046C15.4762 21.5332 15.4762 21.8951 15.4762 24.9999C15.4762 28.1046 15.4762 28.4666 15.5429 29.6951C15.5531 30.4332 15.6884 31.1642 15.9429 31.857C16.1332 32.3583 16.4287 32.8129 16.8095 33.1904C17.1888 33.5735 17.647 33.8693 18.1524 34.057C18.8405 34.3166 19.5693 34.452 20.3048 34.457C21.5333 34.5237 21.8952 34.5237 25 34.5237C28.1048 34.5237 28.4667 34.5237 29.6952 34.457C30.4307 34.452 31.1595 34.3166 31.8476 34.057C32.353 33.8693 32.8113 33.5735 33.1905 33.1904C33.5713 32.8129 33.8668 32.3583 34.0571 31.857C34.3165 31.1655 34.4519 30.4337 34.4571 29.6951C34.5238 28.4666 34.5238 28.1046 34.5238 24.9999C34.5238 21.8951 34.5238 21.5332 34.4571 20.3046ZM32.0381 27.9237C32.0075 28.5114 31.8821 29.0903 31.6667 29.638C31.4818 30.0948 31.2069 30.5098 30.8584 30.8583C30.5099 31.2068 30.0949 31.4817 29.6381 31.6665C29.0853 31.87 28.5031 31.9825 27.9143 31.9999H22.0857C21.4969 31.9825 20.9148 31.87 20.3619 31.6665C19.8896 31.491 19.4631 31.2111 19.1143 30.8475C18.7692 30.5058 18.5027 30.0931 18.3333 29.638C18.1291 29.0857 18.0196 28.5029 18.0095 27.9142V22.0856C18.0196 21.4969 18.1291 20.9141 18.3333 20.3618C18.5088 19.8895 18.7888 19.463 19.1524 19.1142C19.4956 18.771 19.9079 18.5047 20.3619 18.3332C20.9148 18.1298 21.4969 18.0172 22.0857 17.9999H27.9143C28.5031 18.0172 29.0853 18.1298 29.6381 18.3332C30.1104 18.5087 30.5369 18.7887 30.8857 19.1523C31.2308 19.4939 31.4973 19.9067 31.6667 20.3618C31.8701 20.9146 31.9827 21.4968 32 22.0856V24.9999C32 26.9618 32.0667 27.1618 32.0381 27.9142V27.9237ZM30.5143 20.838C30.4009 20.5303 30.2221 20.251 29.9903 20.0191C29.7584 19.7873 29.4791 19.6085 29.1714 19.4951C28.749 19.3487 28.3041 19.2778 27.8571 19.2856H22.1429C21.6936 19.29 21.2486 19.3738 20.8286 19.5332C20.5257 19.6415 20.2492 19.8129 20.0177 20.0363C19.7862 20.2596 19.6048 20.5296 19.4857 20.8285C19.3474 21.2526 19.2798 21.6966 19.2857 22.1427V27.857C19.2952 28.3058 19.3788 28.7499 19.5333 29.1713C19.6467 29.4789 19.8255 29.7583 20.0574 29.9902C20.2892 30.222 20.5686 30.4008 20.8762 30.5142C21.2825 30.6636 21.7102 30.7472 22.1429 30.7618H27.8571C28.3064 30.7574 28.7514 30.6736 29.1714 30.5142C29.4791 30.4008 29.7584 30.222 29.9903 29.9902C30.2221 29.7583 30.4009 29.4789 30.5143 29.1713C30.6737 28.7512 30.7575 28.3063 30.7619 27.857V22.1427C30.7622 21.693 30.6782 21.2472 30.5143 20.8285V20.838ZM25 28.638C24.5227 28.638 24.0501 28.5438 23.6092 28.3609C23.1683 28.1779 22.7679 27.9098 22.4308 27.5718C22.0938 27.2339 21.8267 26.8327 21.6449 26.3914C21.4631 25.9501 21.3702 25.4772 21.3714 24.9999C21.3714 24.2799 21.585 23.5762 21.9852 22.9777C22.3854 22.3792 22.9542 21.9129 23.6195 21.6378C24.2848 21.3627 25.0168 21.2913 25.7228 21.4324C26.4288 21.5736 27.077 21.921 27.5854 22.4307C28.0938 22.9405 28.4396 23.5896 28.5789 24.296C28.7182 25.0023 28.6448 25.7341 28.368 26.3987C28.0911 27.0633 27.6233 27.6309 27.0238 28.0295C26.4243 28.4281 25.72 28.6399 25 28.638ZM28.8095 22.0761C28.599 22.0538 28.4042 21.9544 28.2626 21.797C28.121 21.6396 28.0426 21.4354 28.0426 21.2237C28.0426 21.012 28.121 20.8078 28.2626 20.6504C28.4042 20.493 28.599 20.3936 28.8095 20.3713C29.0201 20.3936 29.2149 20.493 29.3565 20.6504C29.4981 20.8078 29.5764 21.012 29.5764 21.2237C29.5764 21.4354 29.4981 21.6396 29.3565 21.797C29.2149 21.9544 29.0201 22.0538 28.8095 22.0761Z" fill="white"/>
</svg>
