<svg width="50" height="50" viewBox="0 0 50 50" fill="none" xmlns="http://www.w3.org/2000/svg">
<circle opacity="0.5" cx="25" cy="25" r="25" fill="#B2DB97"/>
<path d="M31.6667 16.4282C32.1719 16.4282 32.6563 16.6289 33.0136 16.9861C33.3708 17.3433 33.5714 17.8278 33.5714 18.333V31.6663C33.5714 32.1715 33.3708 32.656 33.0136 33.0132C32.6563 33.3704 32.1719 33.5711 31.6667 33.5711H18.3334C17.8282 33.5711 17.3437 33.3704 16.9865 33.0132C16.6293 32.656 16.4286 32.1715 16.4286 31.6663V18.333C16.4286 17.8278 16.6293 17.3433 16.9865 16.9861C17.3437 16.6289 17.8282 16.4282 18.3334 16.4282H31.6667ZM31.1905 31.1901V26.1425C31.1905 25.3191 30.8634 24.5294 30.2811 23.9471C29.6989 23.3649 28.9092 23.0377 28.0857 23.0377C27.2762 23.0377 26.3334 23.533 25.8762 24.2758V23.2187H23.2191V31.1901H25.8762V26.4949C25.8762 25.7616 26.4667 25.1616 27.2 25.1616C27.5536 25.1616 27.8928 25.302 28.1428 25.5521C28.3929 25.8021 28.5333 26.1413 28.5333 26.4949V31.1901H31.1905ZM20.1238 21.7235C20.5482 21.7235 20.9551 21.5549 21.2552 21.2548C21.5553 20.9548 21.7238 20.5478 21.7238 20.1235C21.7238 19.2377 21.0095 18.5139 20.1238 18.5139C19.697 18.5139 19.2876 18.6835 18.9857 18.9854C18.6839 19.2872 18.5143 19.6966 18.5143 20.1235C18.5143 21.0092 19.2381 21.7235 20.1238 21.7235ZM21.4476 31.1901V23.2187H18.8095V31.1901H21.4476Z" fill="white"/>
</svg>
